<svg width="340" height="340" viewBox="0 0 340 340" fill="none" xmlns="http://www.w3.org/2000/svg">
<path d="M263.533 340H76.4671C34.2365 340 0 305.765 0 263.533V76.4671C0 34.2349 34.2365 -1.06468e-05 76.4671 -1.06468e-05H263.533C305.765 -1.06468e-05 340 34.2349 340 76.4671V263.533C340 305.765 305.765 340 263.533 340Z" fill="#F1CB42"/>
<path d="M173.12 233.33L205.2 181.235L202.383 176.636L169.893 229.38L137.402 176.636L134.585 181.235L166.665 233.33C145.004 232.2 126.293 219.774 116.288 201.848L169.904 114.542L223.521 201.849C213.515 219.774 194.799 232.2 173.12 233.33ZM176.034 106.117L179.238 111.343C198.313 114.281 214.545 126.011 223.577 142.267L210.884 162.86L213.702 167.46L226.082 147.349C229.429 154.911 231.284 163.244 231.284 172.01C231.284 180.819 229.407 189.191 226.055 196.77L169.904 105.337L113.754 196.769C110.403 189.191 108.526 180.819 108.526 172.01C108.526 163.244 110.38 154.911 113.729 147.349L126.107 167.46L128.926 162.86L116.232 142.267C125.264 126.035 141.473 114.281 160.548 111.343L163.751 106.117C130.13 109.223 103.709 137.595 103.709 172.01C103.709 208.451 133.284 238.099 169.676 238.219L169.893 238.557L170.109 238.219C206.525 238.099 236.1 208.451 236.1 172.01C236.1 137.595 209.679 109.223 176.034 106.117Z" fill="#276832"/>
<path d="M169.904 177.285C166.012 177.285 162.858 174.131 162.858 170.238C162.858 166.347 166.012 163.192 169.904 163.192C173.796 163.192 176.951 166.347 176.951 170.238C176.951 174.131 173.796 177.285 169.904 177.285ZM180.251 168.407L189.811 162.993L179.006 164.989L186.129 156.622L176.655 162.19L180.499 151.896L173.497 160.363L173.577 149.377L169.904 159.734L166.231 149.377L166.311 160.363L159.309 151.896L163.153 162.19L153.681 156.622L160.802 164.989L149.997 162.993L159.557 168.407L148.723 170.238L159.557 172.069L149.997 177.485L160.802 175.487L153.681 183.854L163.153 178.288L159.309 188.581L166.311 180.115L166.231 191.101L169.904 180.743L173.577 191.101L173.497 180.115L180.499 188.581L176.655 178.288L186.127 183.856L179.006 175.487L189.811 177.485L180.251 172.069L191.084 170.238L180.251 168.407Z" fill="#276832"/>
<circle cx="169.792" cy="169.792" r="121.073" stroke="#276832" stroke-width="2"/>
<path d="M235.138 104.386C252.009 121.136 262.456 144.348 262.456 170.001C262.456 174.731 262.101 179.378 261.416 183.918M97.0385 113.207C112.814 92.9694 136.825 79.4664 164.035 77.7337C169.475 77.397 172.513 77.478 177.953 77.8817C189.261 78.8451 199.988 81.8435 209.766 86.5093M87.6316 127.963C82.036 138.905 78.5566 151.109 77.7334 164.035M77.6279 173.976C79.7101 223.194 120.27 262.457 170 262.457C189.347 262.457 207.306 256.514 222.152 246.355M259.349 193.859C255.102 209.804 246.7 224.055 235.373 235.38" stroke="#276832"/>
<path d="M178.947 55.6724C182.242 55.6724 184.912 53.002 184.912 49.7075C184.912 46.4129 182.242 43.7425 178.947 43.7425C175.653 43.7425 172.982 46.4129 172.982 49.7075C172.982 53.002 175.653 55.6724 178.947 55.6724Z" fill="#276832"/>
<path d="M290.293 174.971C293.587 174.971 296.257 172.3 296.257 169.006C296.257 165.711 293.587 163.041 290.293 163.041C286.998 163.041 284.328 165.711 284.328 169.006C284.328 172.3 286.998 174.971 290.293 174.971Z" fill="#276832"/>
<path d="M92.2847 129.419C97.3112 129.419 101.385 125.344 101.385 120.318C101.385 115.292 97.311 111.218 92.2847 111.217C87.2581 111.217 83.1834 115.291 83.1831 120.318C83.1831 125.345 87.2579 129.419 92.2847 129.419Z" stroke="#276832"/>
<path d="M228.315 249.345C233.341 249.344 237.416 245.27 237.416 240.243C237.415 235.217 233.341 231.143 228.315 231.143C223.288 231.143 219.214 235.217 219.213 240.243C219.213 245.27 223.288 249.345 228.315 249.345Z" stroke="#276832"/>
<path d="M89.4738 270.409C96.0628 270.409 101.404 265.068 101.404 258.479C101.404 251.89 96.0628 246.55 89.4738 246.55C82.8847 246.55 77.5439 251.89 77.5439 258.479C77.5439 265.068 82.8847 270.409 89.4738 270.409Z" fill="#276832"/>
<path d="M226.667 108.857C232.979 108.857 238.096 103.74 238.096 97.4272C238.096 91.1143 232.979 85.9976 226.667 85.9976C220.354 85.9976 215.237 91.1144 215.237 97.4272C215.237 103.74 220.354 108.857 226.667 108.857Z" stroke="#276832"/>
<path d="M237.579 97.7026C242.11 100.917 244.684 103.877 243.922 105.431C242.713 107.896 233.567 105.889 223.494 100.947C213.42 96.0054 206.235 90.0021 207.444 87.5373C208.337 85.7164 213.561 86.3362 220.291 88.7765" stroke="#276832" stroke-linejoin="round"/>
<path d="M77.5437 174.471C80.5616 174.471 83.0085 172.025 83.0085 169.007C83.0085 165.988 80.5615 163.541 77.5437 163.541C74.5259 163.541 72.0789 165.988 72.0789 169.007C72.0789 172.025 74.5258 174.471 77.5437 174.471Z" stroke="#276832"/>
<path d="M260.468 194.354C263.486 194.354 265.933 191.908 265.933 188.89C265.933 185.872 263.486 183.424 260.468 183.424C257.45 183.424 255.003 185.872 255.003 188.89C255.003 191.908 257.45 194.354 260.468 194.354Z" stroke="#276832"/>
</svg>
