<svg width="901" height="171" viewBox="0 0 901 171" fill="none" xmlns="http://www.w3.org/2000/svg">
<path d="M132.542 171H38.4585C17.219 171 0 153.782 0 132.542V38.4585C0 17.2182 17.219 4.76947e-06 38.4585 4.76947e-06H132.542C153.782 4.76947e-06 171 17.2182 171 38.4585V132.542C171 153.782 153.782 171 132.542 171Z" fill="#F1CB42"/>
<path d="M87.0693 117.351L103.204 91.1504L101.787 88.8376L85.4461 115.365L69.1053 88.8376L67.6885 91.1504L83.8229 117.351C72.9285 116.783 63.5181 110.534 58.4861 101.518L85.4517 57.608L112.418 101.518C107.385 110.534 97.9725 116.783 87.0693 117.351ZM88.5349 53.3704L90.1461 55.9992C99.7397 57.4768 107.904 63.376 112.446 71.552L106.062 81.9088L107.48 84.2224L113.706 74.108C115.389 77.9112 116.322 82.1024 116.322 86.5112C116.322 90.9416 115.378 95.152 113.692 98.964L85.4517 52.9784L57.2117 98.9632C55.5261 95.152 54.5821 90.9416 54.5821 86.5112C54.5821 82.1024 55.5149 77.9112 57.1989 74.108L63.4245 84.2224L64.8421 81.9088L58.4581 71.552C63.0005 63.388 71.1525 57.4768 80.7461 55.9992L82.3573 53.3704C65.4477 54.9328 52.1597 69.2024 52.1597 86.5112C52.1597 104.838 67.0341 119.75 85.3373 119.81L85.4461 119.98L85.5549 119.81C103.87 119.75 118.744 104.838 118.744 86.5112C118.744 69.2024 105.456 54.9328 88.5349 53.3704Z" fill="#276832"/>
<path d="M85.4519 89.164C83.4943 89.164 81.9079 87.5776 81.9079 85.62C81.9079 83.6632 83.4943 82.076 85.4519 82.076C87.4095 82.076 88.9959 83.6632 88.9959 85.62C88.9959 87.5776 87.4095 89.164 85.4519 89.164ZM90.6559 84.6992L95.4639 81.976L90.0295 82.98L93.6119 78.772L88.8471 81.572L90.7807 76.3952L87.2591 80.6536L87.2991 75.128L85.4519 80.3368L83.6047 75.128L83.6447 80.6536L80.1231 76.3952L82.0567 81.572L77.2927 78.772L80.8743 82.98L75.4399 81.976L80.2479 84.6992L74.7991 85.62L80.2479 86.5408L75.4399 89.2648L80.8743 88.26L77.2927 92.468L82.0567 89.6688L80.1231 94.8456L83.6447 90.5872L83.6047 96.1128L85.4519 90.9032L87.2991 96.1128L87.2591 90.5872L90.7807 94.8456L88.8471 89.6688L93.6111 92.4688L90.0295 88.26L95.4639 89.2648L90.6559 86.5408L96.1039 85.62L90.6559 84.6992Z" fill="#276832"/>
<circle cx="85.3956" cy="85.3956" r="60.3956" stroke="#276832" stroke-width="2"/>
<path d="M118.261 52.5003C126.746 60.9244 132 72.5988 132 85.5003C132 87.8794 131.821 90.2168 131.477 92.4998M48.8046 56.9364C56.7388 46.7582 68.8148 39.9669 82.5 39.0955C85.2358 38.9261 86.7639 38.9669 89.5 39.1699C95.187 39.6544 100.582 41.1625 105.5 43.5091M44.0735 64.3576C41.2592 69.8609 39.5093 75.9988 39.0953 82.4998M39.0422 87.4998C40.0895 112.253 60.4887 132 85.5 132C95.2304 132 104.263 129.012 111.729 123.902M130.437 97.4998C128.301 105.519 124.075 112.686 118.379 118.382" stroke="#276832"/>
<path d="M90 28C91.657 28 93 26.657 93 25C93 23.343 91.657 22 90 22C88.343 22 87 23.343 87 25C87 26.657 88.343 28 90 28Z" fill="#276832"/>
<path d="M146 88C147.657 88 149 86.657 149 85C149 83.343 147.657 82 146 82C144.343 82 143 83.343 143 85C143 86.657 144.343 88 146 88Z" fill="#276832"/>
<path d="M46.4138 64.8418C48.8046 64.8416 50.7419 62.9035 50.7419 60.5127C50.7418 58.1221 48.8045 56.1847 46.4138 56.1846C44.023 56.1846 42.0849 58.122 42.0847 60.5127C42.0847 62.9036 44.0229 64.8418 46.4138 64.8418Z" stroke="#276832"/>
<path d="M114.829 125.157C117.22 125.157 119.157 123.219 119.157 120.828C119.157 118.437 117.22 116.5 114.829 116.5C112.438 116.5 110.5 118.437 110.5 120.828C110.5 123.219 112.438 125.157 114.829 125.157Z" stroke="#276832"/>
<path d="M45 136C48.3139 136 51 133.314 51 130C51 126.686 48.3139 124 45 124C41.6861 124 39 126.686 39 130C39 133.314 41.6861 136 45 136Z" fill="#276832"/>
<path d="M114 54.5C117.038 54.5 119.5 52.0378 119.5 49C119.5 45.9622 117.038 43.5 114 43.5C110.962 43.5 108.5 45.9622 108.5 49C108.5 52.0378 110.962 54.5 114 54.5Z" stroke="#276832"/>
<path d="M119.488 49.1386C121.767 50.7551 123.062 52.244 122.678 53.0256C122.07 54.2653 117.471 53.2556 112.404 50.7703C107.338 48.285 103.724 45.2657 104.332 44.026C104.781 43.1102 107.409 43.422 110.794 44.6493" stroke="#276832" stroke-linejoin="round"/>
<path d="M39 87.5C40.3807 87.5 41.5 86.3807 41.5 85C41.4998 83.6193 40.3803 82.5 39 82.5C37.6197 82.5 36.5002 83.6193 36.5 85C36.5 86.3807 37.6193 87.5 39 87.5Z" stroke="#276832"/>
<path d="M131 97.5C132.381 97.5 133.5 96.3807 133.5 95C133.5 93.6193 132.38 92.5 131 92.5C129.62 92.5 128.5 93.6193 128.5 95C128.5 96.3807 129.619 97.5 131 97.5Z" stroke="#276832"/>
<path d="M244.864 81.9838L237.616 61.7462C236.393 58.2638 234.981 52.4278 234.981 52.4278H234.793C234.793 52.4278 233.475 58.2638 232.251 61.7462L225.003 81.9838H244.864ZM204.766 100.904H206.083C207.778 100.904 208.625 100.527 209.19 98.8326L229.992 42.5438H239.875L260.678 98.8326C261.243 100.527 262.184 100.904 263.784 100.904H265.196V108.999H259.925C255.219 108.999 253.712 107.869 252.207 103.539L247.218 89.8902H222.744L217.755 103.539C216.155 107.869 214.649 108.999 209.943 108.999H204.766V100.904Z" fill="#276731"/>
<path d="M273.483 95.6324C273.483 95.6324 279.131 102.692 287.885 102.692C292.309 102.692 296.168 100.716 296.168 96.574C296.168 88.0084 270.189 88.9492 270.189 73.6068C270.189 64.4764 278.189 60.2404 287.885 60.2404C293.626 60.2404 303.51 62.2172 303.51 69.4652V73.9828H295.321V71.63C295.321 68.806 291.085 67.582 288.167 67.582C282.801 67.582 279.319 69.4652 279.319 73.23C279.319 82.266 305.298 80.29 305.298 96.1972C305.298 104.668 297.768 110.128 287.79 110.128C275.083 110.128 268.777 101.751 268.777 101.751L273.483 95.6324Z" fill="#276731"/>
<path d="M317.349 68.712H311.136V61.3704H317.537V48.2864H326.479V61.3704H337.869V68.712H326.479V90.5496C326.479 100.057 333.068 101.281 336.551 101.281C337.869 101.281 338.716 101.093 338.716 101.093V109.187C338.716 109.187 337.493 109.376 335.515 109.376C329.491 109.376 317.349 107.493 317.349 91.5856V68.712Z" fill="#276731"/>
<path d="M350.106 71.2534C350.106 69.8414 349.353 69.1822 348.036 69.1822H344.176V61.3702H352.836C356.977 61.3702 358.954 63.0638 358.954 66.923V69.9358C358.954 71.8182 358.766 73.2302 358.766 73.2302H358.954C361.213 66.2646 366.673 60.8046 374.015 60.8046C375.239 60.8046 376.462 60.9934 376.462 60.9934V70.0294C376.462 70.0294 375.239 69.747 373.733 69.747C367.897 69.747 362.531 73.8886 360.366 80.9486C359.519 83.6782 359.237 86.5958 359.237 89.5142V108.999H350.106V71.2534Z" fill="#276731"/>
<path d="M405.645 102.222C414.681 102.222 422.023 95.0681 422.023 85.0905C422.023 75.2065 414.681 68.1473 405.645 68.1473C396.702 68.1473 389.361 75.2065 389.361 85.0905C389.361 95.0681 396.702 102.222 405.645 102.222ZM405.645 60.2401C419.858 60.2401 431.342 70.6889 431.342 85.0905C431.342 99.5865 419.858 110.129 405.645 110.129C391.431 110.129 380.042 99.5865 380.042 85.0905C380.042 70.6889 391.431 60.2401 405.645 60.2401Z" fill="#276731"/>
<path d="M463.444 52.7102C462.879 51.0158 461.939 50.639 460.338 50.639H459.02V42.5438H464.291C468.998 42.5438 470.598 43.5798 472.104 48.0038L486.694 88.9494C487.918 92.5262 489.235 98.0798 489.235 98.0798H489.424C489.424 98.0798 490.647 92.5262 491.965 88.9494L506.555 48.0038C508.155 43.5798 509.661 42.5438 514.367 42.5438H519.639V50.639H518.321C516.627 50.639 515.779 51.0158 515.215 52.7102L494.319 108.999H484.341L463.444 52.7102Z" fill="#276731"/>
<path d="M537.998 102.787C545.716 102.787 550.705 94.6913 550.705 87.6321V86.0321H548.352C541.481 86.0321 529.056 86.4081 529.056 95.1625C529.056 99.0209 531.974 102.787 537.998 102.787ZM548.54 79.3489H550.612V78.8777C550.612 70.5009 547.505 67.4881 540.068 67.4881C537.81 67.4881 532.256 68.0529 532.256 71.1593V73.8889H523.691V69.1825C523.691 61.3697 535.551 60.2401 540.163 60.2401C555.6 60.2401 559.742 68.3361 559.742 78.8777V99.1153C559.742 100.527 560.495 101.187 561.812 101.187H565.672V108.999H557.106C552.87 108.999 551.176 106.928 551.176 103.539C551.176 101.939 551.364 100.716 551.364 100.716H551.176C551.176 100.716 547.411 110.129 536.021 110.129C527.832 110.129 519.832 105.139 519.832 95.6329C519.832 80.2897 540.54 79.3489 548.54 79.3489Z" fill="#276731"/>
<path d="M575.557 71.2534C575.557 69.8414 574.804 69.1822 573.487 69.1822H569.627V61.3702H578.287C582.428 61.3702 584.405 63.0638 584.405 66.923V69.9358C584.405 71.8182 584.217 73.2302 584.217 73.2302H584.405C586.664 66.2646 592.124 60.8046 599.466 60.8046C600.69 60.8046 601.913 60.9934 601.913 60.9934V70.0294C601.913 70.0294 600.69 69.747 599.184 69.747C593.348 69.747 587.982 73.8886 585.817 80.9486C584.97 83.6782 584.688 86.5958 584.688 89.5142V108.999H575.557V71.2534Z" fill="#276731"/>
<path d="M640.509 79.6308C640.227 71.7236 635.238 67.4884 629.307 67.4884C622.342 67.4884 616.695 71.7236 615.283 79.6308H640.509ZM629.402 60.2404C642.768 60.2404 649.922 70.218 649.922 82.5484C649.922 83.7724 649.639 86.314 649.639 86.314H614.907C615.471 96.4796 622.813 102.221 631.284 102.221C639.474 102.221 645.215 96.6676 645.215 96.6676L649.169 103.163C649.169 103.163 642.109 110.128 630.814 110.128C615.753 110.128 605.493 99.3036 605.493 85.1844C605.493 70.03 615.847 60.2404 629.402 60.2404Z" fill="#276731"/>
<path d="M662.066 71.2534C662.066 69.8414 661.313 69.1822 659.996 69.1822H656.136V61.3702H664.89C668.937 61.3702 670.914 63.1582 670.914 66.6406V68.4294C670.914 69.9358 670.726 71.159 670.726 71.159H670.914C672.797 67.0174 678.445 60.2398 688.799 60.2398C700.094 60.2398 705.177 66.3582 705.177 78.5014V99.115C705.177 100.527 705.93 101.186 707.248 101.186H711.107V108.999H702.071C697.835 108.999 696.047 107.21 696.047 102.974V80.5718C696.047 73.8886 694.729 68.6174 687.105 68.6174C679.762 68.6174 673.926 73.4182 672.044 80.2894C671.385 82.1718 671.197 84.3366 671.197 86.6902V108.999H662.066V71.2534Z" fill="#276731"/>
<path d="M723.16 120.859C726.831 120.859 729.748 118.224 731.537 113.988L733.702 108.81L717.418 71.0651C716.759 69.5587 715.912 69.1819 714.406 69.1819H713.276V61.3699H718.642C722.501 61.3699 723.912 62.4051 725.419 66.1699L736.244 92.9963C737.185 95.4435 737.938 98.7387 737.938 98.7387H738.126C738.126 98.7387 738.785 95.4435 739.726 92.9963L749.61 66.1699C751.022 62.4051 752.716 61.3699 756.576 61.3699H762.035V69.1819H760.811C759.305 69.1819 758.458 69.5587 757.799 71.0651L738.973 117.564C736.056 124.907 730.313 128.765 723.63 128.765C716.571 128.765 712.429 124.059 712.429 124.059L716.194 117.47C716.194 117.564 719.112 120.859 723.16 120.859Z" fill="#276731"/>
<path d="M784.347 102.787C792.065 102.787 797.055 94.6913 797.055 87.6321V86.0321H794.701C787.83 86.0321 775.404 86.4081 775.404 95.1625C775.404 99.0209 778.323 102.787 784.347 102.787ZM794.89 79.3489H796.96V78.8777C796.96 70.5009 793.854 67.4881 786.418 67.4881C784.159 67.4881 778.605 68.0529 778.605 71.1593V73.8889H770.039V69.1825C770.039 61.3697 781.899 60.2401 786.512 60.2401C801.949 60.2401 806.091 68.3361 806.091 78.8777V99.1153C806.091 100.527 806.843 101.187 808.162 101.187H812.021V108.999H803.455C799.219 108.999 797.525 106.928 797.525 103.539C797.525 101.939 797.713 100.716 797.713 100.716H797.525C797.525 100.716 793.76 110.129 782.37 110.129C774.181 110.129 766.18 105.139 766.18 95.6329C766.18 80.2897 786.888 79.3489 794.89 79.3489Z" fill="#276731"/>
<path d="M821.906 71.2534C821.906 69.8414 821.154 69.1822 819.836 69.1822H815.977V61.3702H824.73C828.872 61.3702 830.755 63.1582 830.755 66.6406V68.4294C830.755 69.9358 830.66 71.159 830.66 71.159H830.849C833.108 65.6054 839.697 60.2398 847.133 60.2398C855.228 60.2398 859.84 63.911 861.441 71.0654H861.629C864.264 65.323 870.854 60.2398 878.572 60.2398C889.302 60.2398 894.291 66.3582 894.291 78.5014V99.115C894.291 100.527 895.045 101.186 896.362 101.186H900.222V108.999H891.186C886.95 108.999 885.161 107.21 885.161 102.974V80.4774C885.161 73.795 883.843 68.523 876.784 68.523C870.194 68.523 865.111 74.2654 863.418 80.7598C862.946 82.7366 862.664 84.8078 862.664 87.255V108.999H853.534V80.4774C853.534 74.2654 852.592 68.523 845.345 68.523C838.379 68.523 833.485 74.3598 831.696 81.1366C831.225 83.0198 831.037 85.0902 831.037 87.255V108.999H821.906V71.2534Z" fill="#276731"/>
</svg>
